<?xml version="1.0" standalone="no"?>
<!DOCTYPE svg PUBLIC "-//W3C//DTD SVG 20010904//EN" "http://www.w3.org/TR/2001/REC-SVG-20010904/DTD/svg10.dtd">
<svg version="1.0" xmlns="http://www.w3.org/2000/svg" width="30" height="30" viewBox="0 0 651.109582 565.230023"
    preserveAspectRatio="xMidYMid meet">
    <metadata>Created by Svg.la</metadata>
    <g transform="translate(-171.000000,780.230023) scale(0.100000,-0.100000)" fill="#3845ff" stroke="none">
        <path d="M4570 7799 c-146 -4 -302 -7 -346 -8 l-82 -1 -6 -97 c-3 -54 -8 -276
-12 -493 -3 -217 -7 -483 -9 -590 -3 -107 -5 -212 -5 -232 l0 -38 -109 0 c-61
0 -112 4 -115 8 -3 5 -7 100 -11 213 -3 112 -8 278 -11 369 -2 91 -5 211 -6
268 -1 81 -5 102 -16 102 -11 0 -13 -18 -8 -102 6 -108 12 -264 22 -636 l6
-223 -183 1 c-101 1 -205 1 -231 1 l-48 -1 0 -44 c0 -40 2 -44 30 -49 80 -17
150 -99 150 -179 0 -36 -26 -151 -104 -453 -24 -93 -56 -224 -71 -290 -104
-458 -179 -736 -195 -718 -4 4 -12 22 -18 38 -15 43 -351 824 -546 1270 -97
221 -97 267 -3 314 46 23 47 24 47 69 l0 45 -202 -6 c-112 -4 -332 -10 -491
-13 l-287 -7 0 -43 c0 -39 3 -44 28 -50 58 -12 87 -30 142 -83 66 -65 107
-135 183 -316 137 -320 331 -772 387 -900 34 -77 117 -268 185 -425 68 -157
146 -337 174 -400 28 -63 51 -123 51 -134 0 -32 -206 -437 -279 -547 -72 -109
-153 -194 -214 -222 -54 -26 -130 -22 -188 10 -30 16 -53 23 -58 17 -9 -9 -77
-175 -83 -203 -2 -9 24 -25 76 -47 145 -60 293 -56 433 10 203 97 349 279 558
695 182 364 313 691 611 1526 59 165 117 326 128 358 12 31 25 57 30 57 8 0 2
-943 -9 -1475 -2 -110 -7 -423 -10 -695 -3 -272 -8 -570 -11 -662 -5 -122 -3
-168 5 -168 15 0 15 13 19 317 2 148 2 152 24 155 20 3 24 13 35 76 6 41 15
113 18 160 4 48 8 107 10 132 25 312 25 946 0 1270 -2 30 -7 98 -10 150 -13
222 -25 324 -37 331 -5 4 -9 109 -8 264 0 205 4 263 15 285 8 16 35 83 60 149
47 127 81 200 114 240 l19 25 4 -55 c5 -65 11 -1062 11 -1673 0 -397 -2 -439
-17 -448 -21 -12 -23 -98 -2 -98 11 0 13 -13 9 -62 -2 -35 -9 -76 -14 -92 -14
-46 -11 -76 8 -76 15 0 16 -38 9 -497 -4 -274 -8 -511 -11 -528 -8 -69 -7
-229 2 -232 7 -3 13 83 17 234 4 131 9 256 11 278 2 22 7 246 10 497 3 252 8
464 10 470 4 10 72 14 278 17 149 2 308 4 352 5 l79 1 2 38 c2 20 -1 37 -6 37
-21 0 -70 64 -86 112 -16 48 -18 92 -16 443 3 398 11 567 38 734 61 389 253
691 440 691 114 0 175 -94 195 -300 16 -165 -18 -1495 -41 -1594 -4 -21 -20
-51 -35 -66 -21 -22 -26 -35 -23 -66 l3 -39 249 3 249 4 -7 -99 c-4 -54 -9
-136 -12 -183 -2 -47 -7 -97 -9 -112 -18 -112 -26 -731 -13 -958 12 -200 21
-324 24 -340 1 -8 3 -27 3 -42 1 -22 6 -28 22 -28 19 0 21 5 17 45 -2 25 0 46
3 47 6 3 11 91 25 413 4 77 7 160 9 185 1 25 3 73 4 108 2 111 17 66 28 -89 7
-84 17 -157 24 -165 9 -10 9 -14 0 -14 -8 0 -9 -6 -3 -18 5 -9 10 -35 11 -56
2 -50 17 -76 41 -76 18 0 20 -7 20 -69 0 -75 16 -97 50 -66 85 77 129 532 130
1323 l0 202 240 0 240 0 0 55 c0 43 -3 55 -15 55 -9 0 -33 9 -55 20 -65 33
-75 74 -37 150 22 42 315 551 322 559 2 2 17 -18 32 -44 76 -126 300 -488 341
-548 17 -27 32 -59 32 -71 0 -30 -25 -63 -55 -70 -22 -6 -25 -12 -25 -50 0
-40 3 -45 28 -50 15 -4 97 -4 182 -1 85 2 298 5 473 5 l318 0 -3 47 c-3 45 -4
46 -48 59 -62 19 -172 105 -248 194 -60 71 -374 535 -590 872 l-101 157 96
153 c305 488 397 621 489 707 68 64 186 131 231 131 21 0 23 5 23 50 0 28 -1
50 -2 50 -2 0 -180 3 -395 7 l-393 6 0 -51 c0 -48 2 -52 28 -58 70 -15 95 -28
113 -58 29 -45 19 -84 -52 -200 -34 -56 -82 -137 -107 -181 -24 -44 -60 -104
-78 -133 -19 -29 -34 -55 -34 -58 0 -3 -13 -25 -30 -49 -16 -24 -30 -48 -30
-54 0 -31 -28 4 -119 152 -94 151 -124 197 -253 397 -55 85 -61 124 -24 159
13 12 36 25 52 30 26 7 29 12 30 50 0 23 -3 44 -7 47 -4 2 -130 4 -280 4
l-272 0 7 218 c4 119 9 233 11 252 1 19 6 161 10 315 15 631 15 605 -11 605
-11 0 -13 -32 -12 -167 2 -270 -6 -594 -14 -579 -4 8 -10 94 -14 192 -4 128
-9 183 -19 193 -11 11 -15 10 -24 -8 -7 -12 -10 -25 -8 -29 16 -26 42 -887 29
-956 -8 -46 -28 -58 -41 -24 -4 13 -11 228 -15 478 -4 250 -9 480 -11 510 -6
90 -18 312 -19 350 -1 28 -5 35 -21 35 -16 0 -21 -11 -31 -80 -7 -43 -16 -117
-19 -164 -4 -47 -9 -89 -11 -93 -5 -7 -11 -117 -19 -338 -3 -63 -7 -128 -10
-145 -9 -57 -27 -358 -25 -425 1 -29 -2 -41 -8 -35 -6 6 -13 123 -16 260 -21
812 -29 978 -48 1002 -16 20 -29 4 -23 -28 13 -72 22 -274 30 -674 2 -137 8
-346 11 -462 l7 -213 -62 0 -61 0 0 -50 c0 -43 3 -50 19 -50 11 0 40 -9 65
-20 l46 -19 -1 -170 c-1 -93 -5 -174 -9 -180 -3 -7 -14 16 -24 51 -41 149
-163 300 -288 359 -70 32 -78 34 -183 34 -97 -1 -118 -4 -180 -30 -106 -43
-199 -110 -272 -194 -57 -68 -153 -218 -153 -242 0 -5 -5 -9 -11 -9 -6 0 -8 8
-5 18 2 9 7 193 11 407 3 215 8 422 10 460 3 39 7 162 10 275 3 113 8 237 10
275 3 39 7 147 10 240 3 94 8 198 11 231 3 34 2 63 -2 65 -5 2 -128 1 -274 -2z
m250 -92 c0 -40 -5 -169 -10 -287 -10 -226 -36 -1025 -45 -1415 -3 -126 -8
-249 -10 -272 -6 -53 19 -61 29 -10 12 61 74 187 132 268 80 110 163 186 261
236 151 77 278 83 407 19 149 -73 247 -222 290 -441 22 -108 23 -131 15 -235
-5 -63 -12 -356 -15 -650 -5 -480 -10 -639 -32 -905 l-7 -80 -240 0 c-234 0
-240 1 -237 20 2 11 12 31 21 45 28 39 39 83 51 193 16 149 28 672 26 1142 -2
392 -3 413 -24 476 -41 123 -102 179 -196 179 -200 0 -387 -278 -456 -680 -28
-163 -41 -412 -43 -826 l-2 -359 28 -58 c16 -32 40 -65 53 -74 13 -8 24 -23
24 -33 0 -24 -30 -27 -327 -29 -133 -1 -267 -4 -297 -7 -59 -5 -70 2 -61 39 4
15 18 28 39 35 19 7 45 29 60 51 63 90 68 146 86 1031 6 272 15 657 21 854 5
198 9 383 9 410 -1 28 2 281 6 561 7 539 2 630 -36 705 -25 49 -74 87 -126 98
-34 7 -39 12 -42 37 l-3 30 113 0 c62 0 183 2 268 5 85 3 181 3 213 2 l57 -4
0 -71z m-534 -70 c64 -71 69 -101 68 -417 -1 -511 -9 -766 -38 -1120 -9 -107
-21 -256 -26 -330 -6 -74 -15 -180 -20 -235 -5 -55 -15 -161 -21 -235 -6 -74
-13 -155 -15 -180 -2 -25 -6 -72 -9 -105 -3 -33 -7 -73 -9 -90 -6 -37 -14
-118 -21 -210 -3 -38 -7 -86 -10 -105 -6 -49 -18 -211 -18 -237 1 -13 -3 -23
-8 -23 -10 0 -14 309 -14 1185 l0 670 52 20 53 20 0 48 0 47 -62 0 -61 0 7
458 c4 251 9 482 11 512 1 30 3 129 4 219 l1 164 48 -6 c40 -4 53 -12 88 -50z
m1784 -94 c1 -43 10 -230 20 -433 6 -102 10 -312 10 -467 l0 -281 -57 -4 c-32
-2 -61 -3 -65 -1 -7 4 -4 154 7 313 9 129 14 215 20 325 2 55 7 134 10 175 3
41 8 102 10 135 5 79 15 185 20 210 2 11 4 28 4 38 1 28 21 19 21 -10z m-120
-1123 c0 -11 -4 -20 -8 -20 -4 0 -8 9 -8 20 0 11 4 20 8 20 4 0 8 -9 8 -20z
m216 -189 c-3 -53 -6 -123 -6 -156 l-1 -60 -20 25 c-39 50 -144 150 -162 156
-16 5 -18 14 -14 67 3 34 6 63 6 64 2 4 128 8 165 4 l39 -3 -7 -97z m587 84
c4 -23 -2 -29 -44 -50 -39 -20 -50 -32 -60 -63 -13 -46 -8 -58 101 -227 38
-60 127 -201 197 -313 69 -111 130 -199 134 -195 9 9 166 271 208 347 15 28
59 103 96 166 80 134 92 186 54 234 -24 31 -74 56 -112 56 -21 0 -24 5 -23 33
l1 32 210 -2 c116 -1 283 -2 373 -2 l163 -1 -3 -31 c-3 -29 -8 -33 -58 -48
-101 -32 -210 -118 -303 -241 -48 -63 -200 -292 -289 -435 -41 -66 -102 -164
-136 -217 l-61 -97 146 -228 c195 -303 441 -669 518 -768 106 -137 221 -231
318 -259 13 -4 17 -14 15 -33 l-3 -28 -465 2 c-256 2 -471 3 -478 3 -21 0 -3
42 29 68 37 30 47 82 26 127 -9 18 -58 99 -109 179 -51 80 -124 197 -163 261
-103 171 -129 210 -139 210 -11 0 -73 -102 -236 -389 -114 -202 -124 -223
-124 -271 -1 -63 17 -88 82 -116 38 -17 43 -22 40 -46 l-3 -28 -360 -3 c-198
-1 -365 0 -372 2 -14 6 -5 46 11 46 24 0 140 62 194 104 136 105 232 229 526
674 l147 223 -129 207 c-71 114 -196 315 -277 447 -81 132 -158 251 -171 265
-23 25 -23 25 -14 220 5 107 9 196 10 197 2 8 69 11 281 12 l247 1 5 -25z
m-841 -30 c2 -28 -1 -44 -7 -42 -5 1 -31 9 -57 16 -43 12 -48 16 -48 42 0 28
1 29 54 29 l54 0 4 -45z m-3244 4 c3 -22 -2 -28 -25 -33 -44 -11 -81 -53 -88
-100 -10 -62 11 -123 132 -401 60 -137 202 -465 314 -727 112 -263 209 -478
215 -478 13 0 16 7 80 190 26 74 67 182 91 240 138 327 335 921 313 944 -9 9
-30 -32 -30 -57 0 -44 -136 -454 -227 -687 -60 -152 -111 -263 -99 -215 3 11
35 142 71 290 36 149 92 382 126 520 64 261 70 307 50 367 -16 47 -78 104
-130 118 -34 9 -41 15 -41 35 l0 25 220 0 220 0 0 -59 c0 -81 18 -88 22 -9 l3
63 113 3 112 3 0 -59 c0 -50 -4 -62 -26 -83 -32 -30 -69 -91 -89 -149 -8 -25
-20 -54 -25 -65 -6 -11 -23 -56 -40 -100 l-29 -80 -1 83 c0 59 -4 82 -13 82
-9 0 -11 -27 -9 -112 l4 -113 -52 -135 c-28 -74 -76 -205 -106 -290 -30 -85
-75 -209 -99 -275 -24 -66 -69 -192 -101 -280 -124 -351 -300 -777 -420 -1016
-153 -307 -274 -490 -403 -611 -136 -128 -313 -187 -468 -154 -91 19 -169 51
-165 68 3 14 63 168 66 168 0 0 28 -11 61 -25 75 -31 107 -31 170 -1 155 73
287 262 484 693 l51 112 -19 33 c-23 39 -87 183 -466 1048 -74 168 -213 494
-310 725 -37 88 -83 191 -103 229 -60 115 -162 211 -244 230 -21 5 -28 12 -28
31 0 25 1 25 93 25 95 0 581 12 584 14 1 0 59 1 130 1 l128 0 3 -26z m1562 4
c0 -23 -7 -31 -43 -45 -23 -10 -46 -18 -50 -18 -4 0 -7 20 -7 45 l0 45 50 0
c48 0 50 -1 50 -27z m1820 -188 l65 -66 6 -147 c6 -156 2 -922 -5 -1007 -3
-27 -10 -169 -16 -315 -6 -146 -13 -294 -15 -330 -2 -36 -4 -86 -4 -112 l-1
-48 -57 -29 c-32 -15 -69 -32 -82 -36 l-24 -7 6 358 c4 198 9 382 11 409 17
197 28 651 20 810 -8 161 -1 540 11 573 8 21 19 14 85 -53z m108 -235 c-2 -49
-6 -90 -10 -90 -5 0 -8 48 -8 108 1 77 3 102 11 90 5 -10 9 -58 7 -108z m77
-11 c9 -17 51 -85 94 -152 77 -120 148 -235 343 -554 l99 -162 -30 -43 c-16
-24 -104 -155 -194 -293 -156 -236 -323 -464 -339 -465 -5 0 -8 383 -8 850 0
545 3 850 10 850 5 0 17 -14 25 -31z m-1908 -91 c-3 -8 -6 -5 -6 6 -1 11 2 17
5 13 3 -3 4 -12 1 -19z m-1 -300 c-6 -278 -12 -515 -21 -873 -7 -286 -16 -407
-31 -456 -15 -48 -72 -119 -96 -119 -16 0 -15 49 3 225 6 55 13 121 15 147 2
26 6 60 8 75 3 16 7 62 11 103 3 41 8 91 10 110 2 19 7 64 10 100 3 36 8 81
10 100 2 19 7 67 10 105 3 39 8 93 10 120 3 28 7 84 10 124 3 41 7 91 10 110
2 20 6 70 10 111 29 395 40 401 31 18z m1821 260 c-3 -8 -6 -5 -6 6 -1 11 2
17 5 13 3 -3 4 -12 1 -19z m32 -1005 l2 -559 -30 -27 c-45 -40 -53 -35 -47 31
3 31 8 113 11 182 3 69 8 163 11 210 10 190 14 272 19 415 5 127 13 302 15
313 0 2 4 1 8 -2 5 -3 10 -256 11 -563z m-2255 60 c4 -82 9 -177 11 -213 21
-348 21 -626 0 -1000 -8 -137 -24 -291 -34 -328 -11 -37 -11 -37 -11 -57 0 -8
-4 -15 -9 -15 -5 0 -7 50 -5 113 2 61 6 378 9 702 4 325 8 628 10 675 2 47 4
129 5 183 0 54 4 96 9 93 4 -3 11 -72 15 -153z m2150 -948 c-3 -143 -15 -479
-19 -530 -2 -27 -7 -111 -10 -185 -4 -74 -8 -164 -10 -200 -2 -36 -7 -125 -11
-197 -3 -73 -10 -133 -14 -133 -12 0 -33 103 -46 220 -1 14 -3 25 -4 25 -2 0
-5 39 -19 235 -13 181 -26 812 -18 834 6 14 19 16 79 14 l73 -3 -1 -80z m102
-332 c-3 -230 -6 -425 -7 -433 -4 -83 -21 -293 -25 -320 -2 -19 -7 -57 -10
-85 -7 -56 -50 -203 -67 -223 -24 -30 -28 12 -17 214 6 115 13 245 15 289 2
44 7 170 10 280 3 110 8 225 10 255 2 30 7 142 10 248 l7 192 40 0 41 0 -7
-417z m-310 -150 c-4 -536 -15 -933 -27 -933 -14 0 -19 32 -19 116 0 59 -4 84
-12 84 -8 0 -8 3 -2 9 5 6 6 45 3 93 -7 93 -3 535 6 613 2 28 7 84 9 125 3 41
7 91 10 110 2 19 8 84 11 144 6 98 11 136 20 136 2 0 2 -224 1 -497z" />
    </g>
</svg>