<svg t="1725372361857" class="icon" viewBox="0 0 1024 1024" version="1.1" xmlns="http://www.w3.org/2000/svg" p-id="6010"
    width="200" height="200">
    <path
        d="M992 480h-111.36l-105.632-150.848a31.936 31.936 0 0 0-54.176 2.816l-113.568 204.416-122.88-328.096a32 32 0 0 0-61.024 3.392l-92.224 365.952-77.792-178.88a32 32 0 0 0-56.32-4.416L142.4 480H32a32 32 0 0 0 0 64h128c10.944 0 21.12-5.568 26.976-14.816l31.68-49.728 91.2 209.792a32 32 0 0 0 60.384-4.928l90.144-357.632 111.232 297.024a32 32 0 0 0 27.616 20.672 31.68 31.68 0 0 0 30.336-16.352l122.368-220.256 85.856 122.56A32 32 0 0 0 864 544h128a32 32 0 0 0 0-64z"
        fill="#13227a" p-id="6011"></path>
</svg>