<svg version="1.0" xmlns="http://www.w3.org/2000/svg" width="30" height="30" viewBox="0 0 633.950050 384.845462"
    preserveAspectRatio="xMidYMid meet">
    <g transform="translate(-186.000000,716.967172) scale(0.100000,-0.100000)" fill="#f9bf4b" stroke="none">
        <path d="M5255 7158 c-6 -14 -24 -17 -136 -17 -71 0 -133 -2 -138 -5 -4 -3
-27 -6 -52 -7 -24 0 -69 -5 -99 -10 -30 -5 -88 -13 -127 -20 -46 -7 -73 -15
-73 -23 0 -7 -14 -17 -31 -22 -37 -11 -43 -28 -11 -32 16 -3 21 -9 18 -20 -10
-36 -47 -288 -80 -552 -35 -272 -67 -493 -86 -600 -6 -30 -19 -116 -30 -190
-21 -140 -58 -381 -85 -555 -31 -195 -69 -479 -85 -630 -21 -195 -29 -238 -42
-246 -10 -7 -10 -11 0 -21 6 -6 12 -26 12 -44 0 -17 6 -36 13 -41 14 -11 262
-8 417 6 65 5 109 5 117 -1 7 -6 17 -2 30 11 10 10 29 21 43 23 17 2 30 14 42
38 9 19 21 40 27 46 11 14 24 98 51 344 48 432 82 595 152 718 52 92 159 204
219 232 59 26 135 27 149 1 25 -48 7 -295 -55 -746 -40 -295 -46 -348 -52
-456 -6 -111 -5 -117 14 -123 11 -4 27 -4 36 -1 8 4 18 2 21 -4 9 -15 193 -3
331 21 66 11 127 21 135 23 8 1 35 8 59 15 36 12 46 21 60 54 17 39 53 249 66
381 3 33 11 92 16 130 33 237 65 726 55 857 -6 98 -32 202 -66 268 -31 60
-117 142 -184 175 -166 81 -418 22 -671 -159 -105 -75 -116 -74 -108 12 8 91
48 348 92 592 22 124 43 248 46 275 4 28 13 88 21 134 10 62 11 87 3 97 -6 8
-9 23 -6 33 3 11 -1 28 -8 38 -13 17 -14 17 -20 1z m-32 -91 c5 -14 -13 -149
-37 -267 -8 -41 -18 -97 -21 -125 -4 -27 -15 -97 -26 -155 -80 -442 -110 -718
-81 -752 8 -10 19 -18 24 -18 5 0 55 42 112 93 233 210 500 311 673 253 104
-35 184 -159 214 -333 14 -81 8 -255 -20 -608 -23 -280 -38 -423 -51 -475 -5
-19 -14 -83 -21 -142 -7 -60 -15 -112 -19 -117 -11 -20 -171 -52 -325 -66 -87
-8 -161 -12 -164 -10 -3 3 6 81 18 173 13 92 27 201 31 242 5 41 18 158 30
260 11 102 24 242 27 312 8 163 -3 204 -64 254 -41 34 -51 37 -104 37 -87 0
-174 -46 -269 -142 -93 -95 -133 -163 -170 -285 -41 -137 -63 -279 -121 -793
-9 -83 -14 -103 -28 -104 -9 0 -81 -2 -161 -4 -80 -1 -189 -8 -243 -15 -55 -6
-100 -10 -102 -8 -2 2 7 87 21 188 30 224 35 267 68 535 14 116 31 242 36 280
6 39 26 194 46 345 39 302 68 489 119 770 18 102 50 284 70 405 20 121 41 228
46 237 7 14 23 18 62 19 29 0 97 7 152 14 140 18 271 19 278 2z m-543 -39 c-1
-10 -63 -305 -75 -353 -13 -55 -14 -56 -10 -15 7 75 34 277 41 307 12 56 16
63 30 63 8 0 14 -1 14 -2z m-223 -1480 c-3 -8 -6 -5 -6 6 -1 11 2 17 5 13 3
-3 4 -12 1 -19z m1098 -230 c-9 -151 -91 -867 -110 -955 -7 -32 -25 -29 -25 4
0 30 28 233 65 473 37 234 54 384 57 492 2 54 7 98 11 98 4 0 5 -51 2 -112z
m-1128 30 c-3 -7 -5 -2 -5 12 0 14 2 19 5 13 2 -7 2 -19 0 -25z m-10 -70 c-3
-8 -6 -5 -6 6 -1 11 2 17 5 13 3 -3 4 -12 1 -19z m-10 -75 c-3 -10 -5 -2 -5
17 0 19 2 27 5 18 2 -10 2 -26 0 -35z m-10 -60 c-3 -10 -5 -4 -5 12 0 17 2 24
5 18 2 -7 2 -21 0 -30z m-14 -136 c-7 -50 -18 -126 -23 -167 -6 -41 -12 -84
-14 -95 -3 -11 -5 -36 -5 -54 -1 -21 -5 -31 -10 -25 -8 9 3 110 34 290 8 49
15 108 15 130 0 23 4 34 8 26 5 -6 2 -54 -5 -105z m-62 -466 c-6 -42 -14 -119
-17 -171 -3 -52 -8 -97 -10 -99 -15 -16 -14 31 5 182 11 96 22 180 22 188 1 8
3 6 6 -5 3 -10 0 -53 -6 -95z m1585 -223 c-3 -17 -8 -33 -10 -35 -12 -12 -272
-52 -338 -53 l-78 0 0 45 0 45 103 1 c56 0 147 6 202 13 55 7 106 14 114 15
10 1 12 -7 7 -31z m-465 -21 c-1 -4 -1 -14 -1 -23 0 -8 -4 -12 -10 -9 -13 8
-13 48 1 43 6 -2 10 -7 10 -11z m-651 -52 c0 -3 -9 -23 -19 -44 l-20 -38 -108
-11 c-59 -7 -157 -12 -216 -12 l-108 0 3 38 3 37 90 8 c50 4 126 11 170 16 96
10 205 13 205 6z m53 -2 c2 -5 -2 -19 -10 -33 l-13 -25 2 33 c2 30 12 42 21
25z" />
        <path d="M7472 6618 c-22 -35 -58 -100 -81 -143 -22 -44 -64 -123 -93 -175
-29 -53 -88 -159 -131 -238 -43 -78 -83 -144 -87 -147 -5 -3 -45 48 -90 114
-74 112 -145 211 -295 418 -91 124 -79 124 -307 0 -259 -141 -280 -155 -273
-177 4 -13 -3 -24 -25 -37 -55 -32 -48 -43 236 -358 95 -104 230 -250 302
-324 l130 -134 -71 -109 c-101 -152 -151 -231 -305 -483 -74 -121 -163 -264
-198 -317 -57 -87 -62 -100 -57 -135 3 -21 12 -42 20 -46 7 -4 13 -15 13 -22
0 -17 12 -19 25 -6 6 6 32 3 69 -9 56 -19 197 -47 281 -56 61 -6 89 -14 97
-27 5 -8 16 -5 37 11 16 12 36 19 44 17 24 -10 27 -5 188 300 34 66 97 187
138 269 42 83 81 151 86 152 6 2 28 -22 50 -53 22 -31 94 -129 160 -217 136
-182 188 -253 227 -311 15 -22 39 -51 53 -65 22 -21 29 -22 45 -12 11 7 27 12
37 12 40 0 407 221 431 259 7 12 19 21 27 21 8 0 15 9 15 20 0 11 7 23 15 26
19 8 19 30 0 38 -14 5 -14 8 1 31 13 20 14 25 2 25 -8 0 -19 -5 -24 -10 -8 -8
-23 4 -50 37 -21 26 -95 113 -165 193 -152 174 -238 276 -365 432 l-96 118 24
40 c28 49 189 280 234 335 88 111 343 499 350 535 4 19 1 29 -10 33 -10 4 -16
18 -16 37 0 34 -2 35 -29 18 -16 -10 -29 -8 -68 10 -60 27 -236 95 -285 111
-20 7 -52 22 -70 34 -18 13 -49 24 -69 25 -35 3 -38 0 -77 -60z m183 -38 c119
-44 335 -141 335 -151 0 -9 -259 -400 -486 -732 -62 -92 -114 -174 -114 -181
0 -16 145 -200 294 -371 33 -39 89 -105 123 -146 34 -41 103 -123 152 -183 50
-59 91 -111 91 -115 0 -7 -24 -21 -205 -119 -77 -41 -156 -86 -175 -99 -19
-12 -38 -23 -41 -23 -4 0 -51 66 -105 148 -290 437 -349 522 -368 528 -14 5
-24 1 -34 -12 -11 -16 -130 -229 -341 -610 -31 -55 -61 -109 -67 -119 -11 -17
-16 -17 -105 8 -123 34 -307 70 -325 63 -34 -13 -9 31 202 352 190 288 312
477 349 542 17 30 38 65 45 77 13 19 11 25 -22 65 -20 24 -48 57 -64 73 -183
196 -478 527 -561 629 l-41 52 46 24 c75 38 222 120 284 156 31 19 61 34 66
34 6 0 55 -64 108 -142 202 -296 315 -455 356 -501 47 -53 67 -55 87 -9 16 35
330 612 389 715 34 60 48 77 61 72 9 -4 39 -15 66 -25z m-443 -530 c-48 -95
-93 -176 -101 -178 -12 -4 57 136 149 301 64 116 37 47 -48 -123z m-876 -26
c43 -50 124 -145 179 -209 55 -65 145 -168 199 -228 55 -60 92 -107 83 -106
-41 9 -653 633 -675 688 -3 7 5 21 18 31 23 18 24 17 70 -34 26 -28 83 -92
126 -142z m437 -701 c-6 -16 -230 -362 -329 -507 -45 -67 -72 -86 -47 -34 46
95 283 455 347 526 33 37 38 39 29 15z m445 -316 c18 -30 101 -154 186 -277
84 -123 161 -238 171 -257 20 -36 15 -53 -10 -33 -49 41 -405 559 -405 590 0
17 8 30 19 30 3 0 21 -24 39 -53z m-201 -178 c-35 -64 -67 -115 -67 -106 0 5
16 39 36 75 48 88 45 84 50 79 2 -2 -6 -24 -19 -48z m-637 -99 c0 -5 -5 -10
-11 -10 -5 0 -7 5 -4 10 3 6 8 10 11 10 2 0 4 -4 4 -10z m563 -35 c-3 -9 -8
-14 -10 -11 -3 3 -2 9 2 15 9 16 15 13 8 -4z m1156 -71 l20 -26 -72 -47 c-107
-72 -152 -99 -248 -151 l-88 -48 -21 36 c-26 44 -34 37 137 128 67 35 148 80
180 99 32 19 61 35 65 35 4 0 16 -12 27 -26z m-1682 -225 c177 -36 253 -59
253 -74 0 -7 -10 -25 -21 -39 -21 -26 -25 -27 -83 -21 -131 14 -356 66 -356
83 0 17 37 82 47 82 7 0 79 -14 160 -31z" />
        <path d="M3530 6331 c-8 -6 -30 -11 -48 -11 -20 0 -31 -4 -27 -10 3 -5 18 -10
32 -10 29 0 30 8 -17 -120 -54 -145 -185 -624 -224 -820 -48 -234 -51 -245
-68 -248 -11 -2 -16 -12 -15 -30 2 -26 0 -27 -43 -24 -37 2 -50 8 -70 33 -67
83 -223 399 -330 669 -45 113 -97 243 -116 290 -19 47 -33 96 -31 110 2 21 -4
26 -36 34 -33 8 -40 7 -48 -7 -7 -11 -23 -17 -47 -17 -71 0 -276 -70 -412
-141 -42 -21 -82 -39 -91 -39 -8 0 -22 -9 -32 -20 -14 -17 -15 -24 -5 -41 11
-18 10 -23 -14 -43 -16 -12 -28 -27 -28 -33 0 -7 18 -40 39 -74 l39 -62 -20
-46 c-10 -25 -29 -65 -40 -88 -17 -34 -19 -46 -10 -73 6 -17 14 -71 18 -120 4
-48 9 -92 13 -97 21 -30 76 -63 104 -63 19 0 73 -21 131 -51 71 -36 108 -49
132 -47 32 2 36 -1 101 -102 132 -204 239 -346 333 -444 107 -110 150 -139
232 -156 l57 -11 -18 -47 c-36 -91 -222 -475 -244 -503 -22 -29 -81 -53 -131
-53 -36 0 -55 -5 -73 -22 -12 -12 -23 -25 -23 -30 0 -22 -114 -330 -126 -340
-8 -6 -14 -17 -14 -25 1 -23 63 -55 109 -57 24 -1 69 -6 100 -11 81 -12 293
-13 385 -1 148 19 189 36 256 104 123 125 198 302 574 1351 63 176 165 448
226 605 105 268 258 674 283 748 9 29 8 35 -6 44 -13 7 -16 18 -12 41 5 33
-16 74 -32 64 -5 -3 -58 5 -119 19 -93 21 -142 26 -344 30 -156 4 -240 2 -250
-5z m30 -61 c0 -11 -12 -64 -26 -118 -15 -53 -30 -113 -34 -132 -18 -84 -63
-250 -67 -246 -3 2 10 67 27 143 18 76 34 147 36 158 21 109 49 215 56 215 4
0 8 -9 8 -20z m410 -10 c118 -16 219 -30 224 -30 13 0 1 -47 -53 -197 -216
-598 -380 -1058 -446 -1253 -75 -218 -231 -618 -380 -975 -44 -106 -128 -264
-157 -298 -29 -33 -45 -41 -128 -63 -65 -17 -133 -27 -215 -31 -124 -5 -301 9
-318 26 -7 7 6 56 37 143 26 73 50 139 52 146 2 6 17 12 33 12 45 0 132 45
178 93 52 53 153 251 229 446 31 80 60 150 65 155 5 6 9 20 9 33 0 17 -7 24
-27 28 -94 20 -124 30 -178 58 -111 59 -224 190 -423 489 -132 198 -338 549
-471 802 l-42 80 33 17 c57 29 288 116 400 150 75 23 111 30 118 23 6 -6 42
-100 79 -210 74 -214 208 -557 249 -639 43 -87 122 -203 160 -236 20 -18 65
-45 100 -62 53 -25 68 -28 83 -19 10 7 27 12 38 12 35 0 36 1 140 405 139 540
165 640 196 750 52 182 47 175 130 175 39 0 167 -13 285 -30z m-1966 -491 c20
-33 36 -63 36 -66 0 -3 15 -31 34 -62 47 -78 108 -193 104 -196 -5 -5 -86 120
-153 235 -21 36 -51 79 -66 95 -20 22 -27 37 -22 53 7 30 21 18 67 -59z m1413
-61 c-3 -8 -6 -5 -6 6 -1 11 2 17 5 13 3 -3 4 -12 1 -19z m-1437 -89 c8 -15 8
-29 1 -51 -14 -39 -9 -44 29 -28 17 7 32 11 34 9 1 -2 24 -42 51 -89 27 -47
70 -118 96 -158 27 -40 51 -82 54 -93 10 -31 -33 -24 -95 16 l-55 34 43 1 c27
0 41 4 37 10 -4 6 -28 11 -53 11 -140 1 -145 2 -163 20 -15 15 -22 43 -29 117
-5 53 -13 107 -16 119 -6 22 31 103 47 103 5 0 13 -9 19 -21z m280 -299 c11
-22 18 -40 15 -40 -2 0 -14 18 -25 40 -11 22 -18 40 -15 40 2 0 14 -18 25 -40z
m258 -415 c-3 -3 -9 2 -12 12 -6 14 -5 15 5 6 7 -7 10 -15 7 -18z m62 -89 c0
-6 12 -23 27 -38 15 -15 22 -28 16 -28 -13 0 -43 40 -67 90 l-17 35 20 -25
c11 -14 21 -29 21 -34z m281 -291 c28 -19 66 -37 85 -41 37 -7 47 -24 14 -24
-33 0 -82 25 -125 63 -51 46 -39 47 26 2z m179 -107 c-1 -7 -14 -38 -31 -68
-31 -57 -32 -49 -3 33 15 43 35 64 34 35z m40 -1017 c0 -5 -15 -14 -32 -19
-51 -16 -168 -35 -174 -29 -13 13 10 27 44 27 28 1 139 21 160 29 1 1 2 -3 2
-8z m-513 -16 c43 -8 96 -15 118 -15 22 0 47 -5 55 -11 11 -7 -14 -9 -85 -5
-144 9 -185 16 -185 32 0 17 1 17 97 -1z" />
        <path d="M1940 5813 c0 -6 8 -17 18 -24 16 -13 16 -13 2 6 -8 11 -16 22 -17
24 -2 2 -3 0 -3 -6z" />
    </g>
</svg>