<svg data-v-0dd9719b="" version="1.0" xmlns="http://www.w3.org/2000/svg" xmlns:xlink="http://www.w3.org/1999/xlink"
    width="30" height="30" viewBox="0 0 250.000000 250.000000" preserveAspectRatio="xMidYMid meet"
    color-interpolation-filters="sRGB" style="margin: auto;">
    <g data-v-0dd9719b="" fill="#f9bf4b" class="linesvg" transform="translate(108.23500061035156,83.15674209594727)">
        <polyline stroke="#f9bf4b" stroke-width="5" fill-opacity="0"
            points="123.52999877929688,29.8432559967041 123.52999877929688,0 93.68674278259277,0"></polyline>
        <polyline stroke="#f9bf4b" stroke-width="5" fill-opacity="0"
            points="29.8432559967041,83.6865119934082 0,83.6865119934082 0,53.8432559967041"></polyline>
        <g fill="#f9bf4b" transform="translate(12,12)">
            <g data-gra="path-name" fill-rule="" class="tp-name">
                <g transform="scale(1)">
                    <g>
                        <path
                            d="M16.25-6.09L16.5-6.09 25.39-34.02 31.74-34.02Q30.47-30.72 28.18-24.12L28.18-24.12Q22.6-8.63 19.55-0.76L19.55-0.76Q15.23 9.9 13.46 11.17L13.46 11.17Q11.68 13.46 6.09 13.2L6.09 13.2Q5.08 13.2 3.81 12.7L3.81 12.7 3.81 7.62Q4.06 7.62 4.32 7.87L4.32 7.87Q5.84 8.38 7.11 8.38L7.11 8.38Q10.41 9.65 13.2 0.51L13.2 0.51 0.76-34.02 7.11-34.02 16.25-6.09ZM64.24-23.11L64.24-23.11 64.24 0 58.65 0 58.65-22.09Q58.91-29.96 51.8-29.71L51.8-29.71Q42.66-29.45 42.4-18.54L42.4-18.54 42.4 0 36.56 0 36.56-46.46 42.4-46.46 42.4-29.45 42.66-29.45Q46.72-35.04 52.56-35.04L52.56-35.04Q63.98-34.79 64.24-23.11ZM99.79-34.02L88.36-17.52 100.29 0 93.18 0 84.55-12.7 76.43 0 69.32 0 81.25-17.52 69.82-34.02 77.19-34.02 85.06-21.84 92.93-34.02 99.79-34.02Z"
                            transform="translate(-0.7599999904632568, 46.459999084472656)"></path>
                    </g>
                </g>
            </g>
        </g>
    </g>
</svg>