<?xml version="1.0" standalone="no"?>
<!DOCTYPE svg PUBLIC "-//W3C//DTD SVG 20010904//EN" "http://www.w3.org/TR/2001/REC-SVG-20010904/DTD/svg10.dtd">
<svg version="1.0" xmlns="http://www.w3.org/2000/svg" width="30" height="30" viewBox="0 0 747.531220 448.921427"
    preserveAspectRatio="xMidYMid meet">
    <metadata>Created by Svg.la</metadata>
    <g transform="translate(-122.047540,734.075788) scale(0.100000,-0.100000)" fill="#3845ff" stroke="none">
        <path d="M4882 7321 c-220 -76 -400 -340 -707 -1036 -90 -205 -315 -733 -315
-740 0 -2 -13 -32 -29 -67 -16 -35 -79 -180 -140 -323 -62 -143 -126 -291
-143 -330 -46 -106 -184 -435 -239 -569 -27 -66 -49 -129 -49 -141 0 -27 46
-93 113 -162 61 -63 101 -71 136 -27 12 15 21 32 21 39 0 37 176 360 289 530
310 464 517 702 689 789 61 31 74 32 95 8 29 -32 17 -114 -33 -227 -5 -11 -52
-116 -105 -234 -128 -287 -159 -387 -159 -511 1 -112 23 -182 84 -259 131
-166 318 -186 537 -58 102 60 234 166 356 286 53 52 97 90 97 84 0 -7 -24 -54
-53 -105 -30 -51 -77 -136 -107 -188 l-53 -94 38 -32 c29 -24 45 -30 73 -28
44 3 45 5 129 164 37 69 114 211 171 315 208 379 362 673 362 692 0 28 -58
102 -85 109 -32 8 -60 -10 -75 -48 -31 -76 -294 -574 -308 -582 -9 -5 -56 -47
-106 -94 -202 -188 -411 -338 -515 -368 -79 -24 -153 -15 -192 22 -44 41 -59
83 -59 163 0 83 24 166 105 361 191 460 215 573 150 706 -40 82 -86 109 -185
109 -68 0 -84 -4 -151 -37 -41 -20 -105 -60 -142 -88 -41 -31 -67 -45 -67 -36
0 7 35 65 77 127 444 658 575 869 719 1164 92 190 126 297 132 421 4 94 3 105
-23 163 -60 133 -185 183 -333 132z m179 -238 c6 -16 9 -63 6 -108 -9 -146
-105 -388 -280 -700 -59 -104 -283 -469 -369 -598 -32 -49 -58 -90 -58 -93 0
-2 -21 -36 -47 -76 -27 -40 -51 -81 -55 -90 -4 -10 -11 -18 -17 -18 -5 0 -11
-9 -14 -20 -6 -22 -224 -371 -294 -470 -44 -62 -46 -64 -40 -30 5 35 34 103
240 575 546 1251 645 1453 777 1588 58 59 70 67 103 67 32 0 39 -4 48 -27z
m-1141 -1692 c0 -10 -39 -108 -68 -171 -9 -19 -16 -45 -17 -56 0 -12 -9 -29
-18 -38 -9 -10 -17 -25 -17 -34 0 -9 -11 -41 -25 -70 -14 -30 -22 -58 -19 -63
3 -5 -1 -12 -9 -15 -7 -2 -14 -10 -14 -17 0 -7 -17 -51 -38 -99 -20 -48 -35
-95 -31 -103 3 -9 2 -14 -3 -11 -5 3 -34 -60 -64 -142 -73 -192 -140 -353
-145 -347 -3 2 9 39 26 82 16 43 48 128 70 188 22 61 61 169 88 242 26 73 52
129 57 126 6 -3 7 -1 3 5 -3 6 5 39 18 74 20 51 162 398 183 446 6 14 23 16
23 3z m30 -42 c0 -6 -4 -8 -9 -4 -5 3 -13 -4 -16 -16 -4 -11 -9 -18 -11 -16
-8 8 19 57 27 51 5 -3 9 -10 9 -15z m-239 -562 c-10 -9 -11 -8 -5 6 3 10 9 15
12 12 3 -3 0 -11 -7 -18z m-1 -75 c0 -15 -2 -15 -10 -2 -13 20 -13 33 0 25 6
-3 10 -14 10 -23z m-26 -66 c-3 -9 -10 -16 -15 -16 -5 0 -4 9 3 20 14 22 21
20 12 -4z m-47 -38 c-3 -8 -6 -5 -6 6 -1 11 2 17 5 13 3 -3 4 -12 1 -19z m-2
-66 c-3 -3 -5 1 -5 9 -1 17 -39 -50 -40 -69 0 -7 5 -10 10 -7 6 4 5 -5 -2 -19
-6 -14 -15 -26 -19 -26 -4 0 -6 -13 -4 -29 3 -24 0 -29 -12 -24 -10 4 -14 2
-10 -4 4 -6 0 -16 -8 -23 -8 -7 -15 -8 -15 -3 0 14 39 91 49 98 6 3 8 12 5 20
-4 8 4 40 17 70 20 50 24 54 31 34 5 -12 6 -24 3 -27z m-121 -276 c-3 -15 -8
-25 -11 -23 -2 3 -1 17 3 31 3 15 8 25 11 23 2 -3 1 -17 -3 -31z" />
        <path d="M2000 6169 c-13 -6 -28 -15 -31 -21 -10 -16 -310 -412 -416 -551 -95
-121 -107 -151 -77 -181 28 -29 52 -18 96 42 59 80 233 287 290 345 73 74 117
61 103 -30 -11 -72 -38 -160 -148 -488 l-111 -330 -1 -135 c0 -128 1 -138 29
-197 33 -72 95 -135 163 -165 38 -17 61 -20 133 -16 79 4 96 8 181 50 88 42
268 166 349 238 75 68 121 103 126 97 3 -3 -38 -90 -90 -195 l-96 -190 -96
-78 c-129 -105 -341 -272 -434 -342 -321 -241 -551 -449 -633 -574 -110 -167
-141 -304 -97 -420 26 -71 98 -139 171 -163 66 -22 174 -16 252 14 93 37 226
132 318 229 148 155 215 267 524 882 76 151 159 313 185 360 26 47 71 130 101
185 100 187 91 177 284 331 109 87 521 397 604 454 50 35 67 70 34 70 -22 0
-353 -234 -612 -432 -63 -48 -116 -86 -118 -84 -7 6 34 81 134 246 115 191
102 170 198 313 44 66 88 131 97 145 22 33 10 63 -46 122 -23 25 -62 69 -85
98 -81 99 -130 80 -166 -63 -24 -95 -110 -306 -201 -490 l-54 -110 -149 -128
c-171 -148 -334 -276 -394 -312 -59 -34 -153 -57 -205 -49 -50 7 -101 39 -120
74 -28 53 -3 163 78 345 95 214 220 516 252 610 37 105 42 131 42 211 1 85 -1
93 -29 134 -16 24 -54 70 -84 102 l-53 58 -87 -1 c-47 0 -97 -5 -111 -10z
m420 -1924 c0 -11 -152 -337 -246 -525 -128 -257 -220 -396 -344 -520 -77 -77
-112 -104 -182 -139 -76 -38 -92 -43 -133 -38 -87 9 -135 69 -135 167 1 178
179 384 670 773 157 125 301 240 320 256 33 28 50 37 50 26z m-110 -385 c0 -5
-2 -10 -4 -10 -3 0 -8 5 -11 10 -3 6 -1 10 4 10 6 0 11 -4 11 -10z m-936 -535
c3 -8 1 -15 -3 -15 -5 0 -11 7 -15 15 -3 8 -1 15 3 15 5 0 11 -7 15 -15z
m-110 -160 c-7 -17 -20 -20 -28 -6 -7 10 3 21 20 21 8 0 11 -6 8 -15z m26 -80
c0 -12 -19 -12 -23 0 -4 9 -1 12 9 8 7 -3 14 -7 14 -8z m44 -80 c-4 -8 -7 -15
-9 -15 -2 0 -5 7 -9 15 -3 9 0 15 9 15 9 0 12 -6 9 -15z m46 -45 c0 -5 -4 -10
-9 -10 -6 0 -13 5 -16 10 -3 6 1 10 9 10 9 0 16 -4 16 -10z" />
        <path d="M8315 5663 c-6 -4 -45 -60 -89 -123 -96 -142 -210 -299 -433 -602
-94 -128 -251 -341 -348 -473 -97 -132 -182 -246 -189 -253 -14 -14 -15 -13
-222 249 -54 69 -138 176 -187 237 -48 62 -93 114 -100 116 -6 2 -59 13 -116
25 -115 25 -149 20 -170 -25 -27 -61 -1 -104 64 -104 30 0 44 -7 69 -33 39
-42 177 -223 331 -436 65 -91 132 -179 148 -198 l29 -33 -107 -141 c-59 -78
-125 -165 -148 -193 -23 -29 -51 -65 -62 -80 -11 -16 -38 -50 -60 -75 -22 -26
-53 -64 -70 -86 -16 -21 -50 -64 -75 -94 -25 -31 -67 -84 -93 -118 -35 -46
-58 -66 -92 -79 -41 -15 -45 -20 -45 -51 0 -46 46 -88 114 -104 28 -6 65 -17
81 -24 17 -7 39 -9 51 -4 12 4 53 53 93 108 61 86 357 484 394 531 7 9 43 57
81 108 39 50 73 92 77 92 7 0 57 -70 204 -280 121 -173 315 -362 452 -441 110
-63 192 -88 283 -89 65 0 82 4 125 29 57 32 95 94 95 153 0 40 -57 121 -101
144 -38 19 -39 18 -39 -15 0 -20 -9 -36 -26 -50 -124 -98 -265 -8 -530 339
-66 85 -132 173 -149 194 -162 212 -154 199 -136 222 58 76 320 425 379 505
39 54 68 100 65 103 -4 3 -2 6 4 6 6 0 35 33 64 73 29 39 94 128 144 196 49
68 137 187 195 265 57 78 120 164 140 193 47 66 92 118 116 131 10 5 41 8 69
5 33 -3 56 0 68 9 19 14 39 81 31 102 -10 26 -55 41 -164 54 -183 22 -204 23
-215 15z m-565 -987 c0 -2 -8 -10 -17 -17 -16 -13 -17 -12 -4 4 13 16 21 21
21 13z m23 -58 c-12 -13 -39 -48 -60 -79 -57 -84 -145 -191 -151 -185 -3 3
-12 0 -21 -7 -9 -7 -7 -2 4 15 11 14 22 22 24 16 2 -5 15 8 28 29 14 21 37 50
50 65 14 14 22 31 18 37 -3 7 -2 10 3 9 5 -2 29 25 52 60 24 36 46 59 53 55 7
-4 8 0 3 13 -6 15 -5 16 5 7 10 -10 8 -17 -8 -35z m97 22 c0 -5 -5 -10 -11
-10 -5 0 -7 5 -4 10 3 6 8 10 11 10 2 0 4 -4 4 -10z m-30 -47 c0 -15 -50 -66
-58 -59 -4 4 4 16 17 27 13 10 20 19 17 19 -4 0 -4 5 -1 10 7 12 25 13 25 3z
m-190 -53 c-12 -16 -24 -30 -26 -30 -3 0 4 14 16 30 12 17 24 30 26 30 3 0 -4
-13 -16 -30z m108 -59 c-7 -12 -17 -21 -22 -21 -4 0 -3 7 4 15 7 8 9 15 4 15
-5 0 -2 4 6 10 20 13 24 6 8 -19z m-162 -9 c-17 -16 -18 -16 -5 5 7 12 15 20
18 17 3 -2 -3 -12 -13 -22z m-26 -36 c0 -2 -8 -10 -17 -17 -16 -13 -17 -12 -4
4 13 16 21 21 21 13z m-166 -612 c20 -20 21 -30 1 -14 -12 10 -15 10 -15 -2 0
-8 6 -20 13 -28 6 -8 -3 -2 -21 14 -23 22 -29 32 -20 38 18 11 25 10 42 -8z
m97 -120 c24 -31 71 -89 104 -128 34 -39 71 -84 84 -101 12 -16 43 -51 68 -78
28 -29 43 -53 39 -62 -7 -20 -26 -19 -26 1 0 16 -89 121 -192 227 -32 32 -57
62 -56 65 3 12 -64 112 -72 107 -4 -2 -7 2 -7 10 0 26 13 17 58 -41z m61 -146
c29 -34 46 -58 38 -53 -20 12 -107 115 -97 115 3 0 29 -28 59 -62z m-37 -8 c3
-5 -1 -10 -10 -10 -9 0 -13 5 -10 10 3 6 8 10 10 10 2 0 7 -4 10 -10z m50 -50
c3 -5 1 -10 -4 -10 -6 0 -11 5 -11 10 0 6 2 10 4 10 3 0 8 -4 11 -10z m56 -27
c13 -16 12 -17 -3 -4 -10 7 -18 15 -18 17 0 8 8 3 21 -13z m68 -87 c-2 -2 -13
8 -23 22 l-19 27 24 -22 c12 -12 21 -24 18 -27z m51 -38 c0 -13 -23 -5 -28 10
-2 7 2 10 12 6 9 -3 16 -11 16 -16z" />
        <path d="M5210 3879 c0 -5 5 -7 10 -4 6 3 10 8 10 11 0 2 -4 4 -10 4 -5 0 -10
-5 -10 -11z" />
        <path d="M5120 3850 c-9 -6 -10 -10 -3 -10 6 0 15 5 18 10 8 12 4 12 -15 0z" />
    </g>
</svg>